<svg width="128" height="117" viewBox="0 0 128 117" fill="none" xmlns="http://www.w3.org/2000/svg">
<g filter="url(#filter0_d_85_18)">
<path d="M21.9593 90.8603L31.939 108.461H11.9796L21.9593 90.8603Z" fill="#9E22C9"/>
<path d="M2 90.8602L11.9796 108.461L21.9593 90.8603L2 90.8602Z" fill="#9E22C9"/>
<path d="M21.9593 90.8603L31.939 108.461H11.9796L21.9593 90.8603Z" fill="#9E22C9"/>
<path d="M21.9593 90.8603L31.939 108.461H11.9796L21.9593 90.8603Z" fill="#9E22C9"/>
<path d="M21.9593 90.8603L31.939 108.461H11.9796L21.9593 90.8603Z" fill="#9E22C9"/>
<path d="M21.9593 90.8603L31.939 108.461H11.9796L21.9593 90.8603Z" fill="#9E22C9"/>
<path d="M41.9186 90.8603L21.9593 90.8603L31.939 108.461L41.9186 90.8603Z" fill="#9E22C9"/>
<path d="M22.0983 90.8602L12.1187 73.259H32.078L22.0983 90.8602Z" fill="#9E22C9"/>
<path d="M42.0576 90.8602L32.078 73.259L22.0983 90.8602L42.0576 90.8602Z" fill="#9E22C9"/>
<path d="M22.0983 90.8602L12.1187 73.259H32.078L22.0983 90.8602Z" fill="#9E22C9"/>
<path d="M22.0983 90.8602L12.1187 73.259H32.078L22.0983 90.8602Z" fill="#9E22C9"/>
<path d="M22.0983 90.8602L12.1187 73.259H32.078L22.0983 90.8602Z" fill="#9E22C9"/>
<path d="M22.0983 90.8602L12.1187 73.259H32.078L22.0983 90.8602Z" fill="#9E22C9"/>
<path d="M2.139 90.8602L22.0983 90.8602L12.1187 73.259L2.139 90.8602Z" fill="#9E22C9"/>
<path d="M60.9917 89.9088L51.012 72.3076L71.715 72.3076L60.9917 89.9088Z" fill="#2E9BFF"/>
<path d="M81.6084 89.9088L71.715 72.3076L60.9917 89.9088L81.6084 89.9088Z" fill="#2E9BFF"/>
<path d="M60.9917 89.9088L51.012 72.3076L71.715 72.3076L60.9917 89.9088Z" fill="#2E9BFF"/>
<path d="M60.9917 89.9088L51.012 72.3076L71.715 72.3076L60.9917 89.9088Z" fill="#2E9BFF"/>
<path d="M60.9917 89.9088L51.012 72.3076L71.715 72.3076L60.9917 89.9088Z" fill="#2E9BFF"/>
<path d="M60.9917 89.9088L51.012 72.3076L71.715 72.3076L60.9917 89.9088Z" fill="#2E9BFF"/>
<path d="M41.0323 89.9088L60.9917 89.9088L51.012 72.3076H31.1184L41.0323 89.9088Z" fill="#2E9BFF"/>
<path d="M51.3145 108.462L40.9141 54.2308L61.6171 54.2308L51.3145 108.462Z" fill="#074EB8"/>
<path d="M81.6085 89.909L61.6171 54.2308L51.3145 108.462L81.6085 89.909Z" fill="#074EB8"/>
<path d="M51.3145 108.462L40.9141 54.2308L61.6171 54.2308L51.3145 108.462Z" fill="#074EB8"/>
<path d="M51.3145 108.462L40.9141 54.2308L61.6171 54.2308L51.3145 108.462Z" fill="#074EB8"/>
<path d="M51.3145 108.462L40.9141 54.2308L61.6171 54.2308L51.3145 108.462Z" fill="#074EB8"/>
<path d="M51.3145 108.462L40.9141 54.2308L61.6171 54.2308L51.3145 108.462Z" fill="#074EB8"/>
<path d="M30.9344 71.832L51.3145 108.462L40.9141 54.2308H21.0205L30.9344 71.832Z" fill="#074EB8"/>
<path d="M71.0897 108.462L60.9917 89.909H81.6085L71.0897 108.462Z" fill="#074EB8"/>
<path d="M71.0897 108.462L60.9917 89.909H81.6085L71.0897 108.462Z" fill="#074EB8"/>
<path d="M71.0897 108.462L60.9917 89.909H81.6085L71.0897 108.462Z" fill="#074EB8"/>
<path d="M71.0897 108.462L60.9917 89.909H81.6085L71.0897 108.462Z" fill="#074EB8"/>
<path d="M71.0897 108.462L60.9917 89.909H81.6085L71.0897 108.462Z" fill="#074EB8"/>
<path d="M51.1304 108.462H71.0897L60.9917 89.909H41.0298L51.1304 108.462Z" fill="#074EB8"/>
<path d="M31.743 36.1538L41.7226 54.2307L21.0205 54.2308L31.743 36.1538Z" fill="#074EB8"/>
<path d="M31.743 36.1538L41.7226 54.2307L21.0205 54.2308L31.743 36.1538Z" fill="#074EB8"/>
<path d="M31.743 36.1538L41.7226 54.2307L21.0205 54.2308L31.743 36.1538Z" fill="#074EB8"/>
<path d="M31.743 36.1538L41.7226 54.2307L21.0205 54.2308L31.743 36.1538Z" fill="#074EB8"/>
<path d="M31.743 36.1538L41.7226 54.2307L21.0205 54.2308L31.743 36.1538Z" fill="#074EB8"/>
<path d="M51.7023 36.1538L31.743 36.1538L41.7226 54.2307L61.6171 54.2308L51.7023 36.1538Z" fill="#074EB8"/>
<path d="M101.383 89.9088L91.4036 72.3076L112.107 72.3076L101.383 89.9088Z" fill="#2E9BFF"/>
<path d="M122 89.9088L112.107 72.3076L101.383 89.9088L122 89.9088Z" fill="#2E9BFF"/>
<path d="M101.383 89.9088L91.4036 72.3076L112.107 72.3076L101.383 89.9088Z" fill="#2E9BFF"/>
<path d="M101.383 89.9088L91.4036 72.3076L112.107 72.3076L101.383 89.9088Z" fill="#2E9BFF"/>
<path d="M101.383 89.9088L91.4036 72.3076L112.107 72.3076L101.383 89.9088Z" fill="#2E9BFF"/>
<path d="M101.383 89.9088L91.4036 72.3076L112.107 72.3076L101.383 89.9088Z" fill="#2E9BFF"/>
<path d="M81.4239 89.9088L101.383 89.9088L91.4036 72.3076H71.51L81.4239 89.9088Z" fill="#2E9BFF"/>
<path d="M91.706 108.462L81.3056 54.2308L102.009 54.2308L91.706 108.462Z" fill="#2E9BFF"/>
<path d="M122 89.909L102.009 54.2308L91.706 108.462L122 89.909Z" fill="#2E9BFF"/>
<path d="M91.706 108.462L81.3056 54.2308L102.009 54.2308L91.706 108.462Z" fill="#2E9BFF"/>
<path d="M91.706 108.462L81.3056 54.2308L102.009 54.2308L91.706 108.462Z" fill="#2E9BFF"/>
<path d="M91.706 108.462L81.3056 54.2308L102.009 54.2308L91.706 108.462Z" fill="#2E9BFF"/>
<path d="M91.706 108.462L81.3056 54.2308L102.009 54.2308L91.706 108.462Z" fill="#2E9BFF"/>
<path d="M71.3259 71.832L91.706 108.462L81.3056 54.2308L42 20L71.3259 71.832Z" fill="#2E9BFF"/>
<path d="M71.5098 0L81.9102 54.2308L61.2072 54.2308L71.5098 0Z" fill="#2E9BFF"/>
<path d="M41.2158 18.5526L61.2072 54.2308L71.5098 0L41.2158 18.5526Z" fill="#2E9BFF"/>
<path d="M71.5098 0L81.9102 54.2308L61.2072 54.2308L71.5098 0Z" fill="#2E9BFF"/>
<path d="M71.5098 0L81.9102 54.2308L61.2072 54.2308L71.5098 0Z" fill="#2E9BFF"/>
<path d="M71.5098 0L81.9102 54.2308L61.2072 54.2308L71.5098 0Z" fill="#2E9BFF"/>
<path d="M71.5098 0L81.9102 54.2308L61.2072 54.2308L71.5098 0Z" fill="#2E9BFF"/>
<path d="M91.8899 36.6296L71.5098 0L81.9102 54.2308H101.804L91.8899 36.6296Z" fill="#2E9BFF"/>
<path d="M111.481 108.462L101.383 89.909H122L111.481 108.462Z" fill="#2E9BFF"/>
<path d="M111.481 108.462L101.383 89.909H122L111.481 108.462Z" fill="#2E9BFF"/>
<path d="M111.481 108.462L101.383 89.909H122L111.481 108.462Z" fill="#2E9BFF"/>
<path d="M111.481 108.462L101.383 89.909H122L111.481 108.462Z" fill="#2E9BFF"/>
<path d="M111.481 108.462L101.383 89.909H122L111.481 108.462Z" fill="#2E9BFF"/>
<path d="M91.5219 108.462L111.481 108.462L101.383 89.909H81.4214L91.5219 108.462Z" fill="#2E9BFF"/>
<path d="M51.7346 0L61.8326 18.5526H41.2158L51.7346 0Z" fill="#2E9BFF"/>
<path d="M51.7346 0L61.8326 18.5526H41.2158L51.7346 0Z" fill="#2E9BFF"/>
<path d="M51.7346 0L61.8326 18.5526H41.2158L51.7346 0Z" fill="#2E9BFF"/>
<path d="M51.7346 0L61.8326 18.5526H41.2158L51.7346 0Z" fill="#2E9BFF"/>
<path d="M51.7346 0L61.8326 18.5526H41.2158L51.7346 0Z" fill="#2E9BFF"/>
<path d="M71.6939 9.19439e-07L51.7346 0L61.8326 18.5526H81.7945L71.6939 9.19439e-07Z" fill="#2E9BFF"/>
</g>
<defs>
<filter id="filter0_d_85_18" x="0" y="0" width="128" height="116.462" filterUnits="userSpaceOnUse" color-interpolation-filters="sRGB">
<feFlood flood-opacity="0" result="BackgroundImageFix"/>
<feColorMatrix in="SourceAlpha" type="matrix" values="0 0 0 0 0 0 0 0 0 0 0 0 0 0 0 0 0 0 127 0" result="hardAlpha"/>
<feOffset dx="2" dy="4"/>
<feGaussianBlur stdDeviation="2"/>
<feColorMatrix type="matrix" values="0 0 0 0 0 0 0 0 0 0 0 0 0 0 0 0 0 0 0.25 0"/>
<feBlend mode="normal" in2="BackgroundImageFix" result="effect1_dropShadow_85_18"/>
<feBlend mode="normal" in="SourceGraphic" in2="effect1_dropShadow_85_18" result="shape"/>
</filter>
</defs>
</svg>
